<?xml version="1.0" encoding="UTF-8" standalone="no"?>
<svg
   xmlns:dc="http://purl.org/dc/elements/1.1/"
   xmlns:cc="http://creativecommons.org/ns#"
   xmlns:rdf="http://www.w3.org/1999/02/22-rdf-syntax-ns#"
   xmlns:svg="http://www.w3.org/2000/svg"
   xmlns="http://www.w3.org/2000/svg"
   xmlns:xlink="http://www.w3.org/1999/xlink"
   id="svg8"
   version="1.1"
   viewBox="0 0 135.46666 135.46667"
   height="512"
   width="512">
  <defs
     id="defs2">
    <linearGradient
       id="linearGradient843">
      <stop
         id="stop839"
         offset="0"
         style="stop-color:#1f2531;stop-opacity:1" />
      <stop
         id="stop841"
         offset="1"
         style="stop-color:#6a9eea;stop-opacity:1" />
    </linearGradient>
    <radialGradient
       gradientTransform="matrix(6.140056,2.7316254e-7,-1.1424707e-7,2.5680074,-576.97249,-152.08245)"
       gradientUnits="userSpaceOnUse"
       r="20.683659"
       fy="148.5"
       fx="105"
       cy="148.5"
       cx="105"
       id="radialGradient847"
       xlink:href="#linearGradient843" />
  </defs>
  <metadata
     id="metadata5">
    <rdf:RDF>
      <cc:Work
         rdf:about="">
        <dc:format>image/svg+xml</dc:format>
        <dc:type
           rdf:resource="http://purl.org/dc/dcmitype/StillImage" />
        <dc:title></dc:title>
      </cc:Work>
    </rdf:RDF>
  </metadata>
  <g
     transform="translate(0,-161.53332)"
     style="opacity:1"
     id="layer1">
    <ellipse
       ry="52.057465"
       rx="52.021004"
       cy="229.26665"
       cx="67.733322"
       id="path837"
       style="opacity:1;fill:url(#radialGradient847);fill-opacity:1;fill-rule:nonzero;stroke:none;stroke-width:3.29660273;stroke-linecap:round;stroke-linejoin:round;stroke-miterlimit:4;stroke-dasharray:none;stroke-opacity:0.9414896;paint-order:stroke markers fill" />
    <path
       id="path5746"
       d="m 68.614856,161.53332 -0.219641,15.68541 a 46.275992,24.342374 30.030684 0 1 11.893577,32.23179 46.275992,24.342374 30.030684 0 1 -52.235033,-2.06537 46.275992,24.342374 30.030684 0 1 -5.726489,-3.63781 L 8.6634947,196.0568 7.9330659,212.36129 17.78221,214.64387 a 52.047569,52.084047 0 0 0 -2.162705,14.62279 52.047569,52.084047 0 0 0 28.501173,46.4163 l 0.783718,10.8406 21.8155,10.47643 0.219641,-15.68538 a 46.275992,24.342374 30.030684 0 1 -11.894876,-32.23312 46.275992,24.342374 30.030684 0 1 17.260048,-8.13921 46.275992,24.342374 30.030684 0 1 34.974981,10.2046 46.275992,24.342374 30.030684 0 1 5.7278,3.63909 l 13.66377,7.69054 c 0,0 2.93108,-16.64874 2.25888,-16.81692 -0.36999,-0.0927 -5.52072,-2.6088 -10.49379,-5.05547 a 52.047569,52.084047 0 0 0 1.27759,-11.33746 52.047569,52.084047 0 0 0 -26.322862,-45.1716 L 94.64789,179.9045 78.514684,166.28316 Z"
       style="opacity:1;fill:#d04949;fill-opacity:1;fill-rule:nonzero;stroke:none;stroke-width:2.55761862;stroke-linecap:round;stroke-linejoin:round;stroke-miterlimit:4;stroke-dasharray:none;stroke-opacity:0.9414896;paint-order:stroke markers fill" />
    <path
       id="path5735"
       d="M 68.681472,161.53332 A 60.22211,31.678393 30.030684 0 1 84.159636,203.47938 60.22211,31.678393 30.030684 0 1 16.182595,200.79102 60.22211,31.678393 30.030684 0 1 8.7301005,196.0568 67.733053,67.780524 0 0 0 0,229.26666 67.733053,67.780524 0 0 0 66.786512,296.99999 60.22211,31.678393 30.030684 0 1 51.307055,255.05393 60.22211,31.678393 30.030684 0 1 73.768493,244.4617 a 60.22211,31.678393 30.030684 0 1 45.515587,13.27927 60.22211,31.678393 30.030684 0 1 7.45378,4.73554 67.733053,67.780524 0 0 0 8.72881,-33.20985 67.733053,67.780524 0 0 0 -66.785198,-67.73334 z"
       style="opacity:1;fill:#282828;fill-opacity:1;fill-rule:nonzero;stroke:none;stroke-width:3.32840371;stroke-linecap:round;stroke-linejoin:round;stroke-miterlimit:4;stroke-dasharray:none;stroke-opacity:0.9414896;paint-order:stroke markers fill" />
  </g>
</svg>
