<svg xmlns="http://www.w3.org/2000/svg" viewBox="0 0 1000 562">
<defs><linearGradient id="bg" x2="1" y2="1"><stop stop-color="#0c111a"/><stop offset="1" stop-color="#08090f"/></linearGradient><pattern id="grid" width="32" height="32" patternUnits="userSpaceOnUse"><path d="M32 0H0v32" fill="none" stroke="#26303b" opacity=".42"/></pattern><filter id="glow"><feGaussianBlur stdDeviation="3" result="b"/><feMerge><feMergeNode in="b"/><feMergeNode in="SourceGraphic"/></feMerge></filter></defs>
<rect width="1000" height="562" fill="url(#bg)"/><rect width="1000" height="562" fill="url(#grid)"/><path d="M0 42h1000M42 0v562M958 0v562M0 520h1000" stroke="#ff4fd8" opacity=".25"/>
<g fill="none" stroke="#ff4fd8" stroke-width="3" opacity=".72" filter="url(#glow)"><path d="M500 235L443 279"/><path d="M500 235L346 336"/><path d="M500 235L295 308"/><path d="M500 235L645 305"/><path d="M500 235L480 305"/><path d="M500 235L571 270"/><path d="M500 235L510 300"/><path d="M500 235L619 129"/><path d="M500 235L272 108"/><circle cx="500" cy="235" r="96"/><circle cx="500" cy="235" r="42"/></g>
<g fill="#090c12" stroke="#69ffb4" stroke-width="4" filter="url(#glow)"><rect x="433" y="269" width="20" height="20" transform="rotate(21 443 279)"/><rect x="336" y="326" width="20" height="20" transform="rotate(38 346 336)"/><rect x="285" y="298" width="20" height="20" transform="rotate(10 295 308)"/><rect x="635" y="295" width="20" height="20" transform="rotate(27 645 305)"/><rect x="470" y="295" width="20" height="20" transform="rotate(44 480 305)"/><rect x="561" y="260" width="20" height="20" transform="rotate(16 571 270)"/><rect x="500" y="290" width="20" height="20" transform="rotate(33 510 300)"/><rect x="609" y="119" width="20" height="20" transform="rotate(5 619 129)"/><rect x="262" y="98" width="20" height="20" transform="rotate(22 272 108)"/><circle cx="500" cy="235" r="18" fill="#ff4fd8" stroke="none"/></g>
<g fill="#ff4fd8" opacity=".25"><rect x="60" y="81" width="102" height="2"/><rect x="152" y="74" width="102" height="2"/><rect x="244" y="71" width="102" height="2"/><rect x="336" y="69" width="102" height="2"/><rect x="428" y="97" width="102" height="2"/><rect x="520" y="111" width="102" height="2"/><rect x="612" y="89" width="102" height="2"/><rect x="704" y="107" width="63" height="2"/><rect x="796" y="87" width="83" height="2"/></g><rect x="42" y="42" width="10" height="10" fill="#69ffb4"/><text x="68" y="53" fill="#ff4fd8" font-family="monospace" font-size="15" letter-spacing="3">ANGULAR · TYPESCRIPT · WEB</text>
<text x="42" y="488" fill="#edf8f2" font-family="monospace" font-size="35" font-weight="700" letter-spacing="2">ANGULAR SHOP</text><text x="42" y="524" fill="#69ffb4" font-family="monospace" font-size="13" letter-spacing="4">CONNORBP // BUILD_771</text><path d="M810 488h148v36H810z" fill="none" stroke="#ff4fd8"/><text x="884" y="511" text-anchor="middle" fill="#ff4fd8" font-family="monospace" font-size="12">OPEN_SOURCE</text></svg>