<svg xmlns="http://www.w3.org/2000/svg" viewBox="0 0 1000 562">
<defs><linearGradient id="bg" x2="1" y2="1"><stop stop-color="#0c111a"/><stop offset="1" stop-color="#08090f"/></linearGradient><pattern id="grid" width="32" height="32" patternUnits="userSpaceOnUse"><path d="M32 0H0v32" fill="none" stroke="#26303b" opacity=".42"/></pattern><filter id="glow"><feGaussianBlur stdDeviation="3" result="b"/><feMerge><feMergeNode in="b"/><feMergeNode in="SourceGraphic"/></feMerge></filter></defs>
<rect width="1000" height="562" fill="url(#bg)"/><rect width="1000" height="562" fill="url(#grid)"/><path d="M0 42h1000M42 0v562M958 0v562M0 520h1000" stroke="#69ffb4" opacity=".25"/>
<g fill="none" stroke="#69ffb4" stroke-width="3" opacity=".72" filter="url(#glow)"><path d="M500 235L397 278"/><path d="M500 235L281 371"/><path d="M500 235L325 348"/><path d="M500 235L470 275"/><path d="M500 235L427 336"/><path d="M500 235L298 203"/><path d="M500 235L613 257"/><path d="M500 235L591 159"/><path d="M500 235L447 356"/><circle cx="500" cy="235" r="96"/><circle cx="500" cy="235" r="42"/></g>
<g fill="#090c12" stroke="#ff4fd8" stroke-width="4" filter="url(#glow)"><rect x="387" y="268" width="20" height="20" transform="rotate(31 397 278)"/><rect x="271" y="361" width="20" height="20" transform="rotate(3 281 371)"/><rect x="315" y="338" width="20" height="20" transform="rotate(20 325 348)"/><rect x="460" y="265" width="20" height="20" transform="rotate(37 470 275)"/><rect x="417" y="326" width="20" height="20" transform="rotate(9 427 336)"/><rect x="288" y="193" width="20" height="20" transform="rotate(26 298 203)"/><rect x="603" y="247" width="20" height="20" transform="rotate(43 613 257)"/><rect x="581" y="149" width="20" height="20" transform="rotate(15 591 159)"/><rect x="437" y="346" width="20" height="20" transform="rotate(32 447 356)"/><circle cx="500" cy="235" r="18" fill="#69ffb4" stroke="none"/></g>
<g fill="#69ffb4" opacity=".25"><rect x="60" y="120" width="75" height="2"/><rect x="152" y="123" width="50" height="2"/><rect x="244" y="124" width="37" height="2"/><rect x="336" y="125" width="70" height="2"/><rect x="428" y="96" width="47" height="2"/><rect x="520" y="111" width="36" height="2"/><rect x="612" y="118" width="30" height="2"/><rect x="704" y="93" width="27" height="2"/><rect x="796" y="109" width="65" height="2"/></g><rect x="42" y="42" width="10" height="10" fill="#ff4fd8"/><text x="68" y="53" fill="#69ffb4" font-family="monospace" font-size="15" letter-spacing="3">SECURITY · CRYPTOGRAPHY · RESEARCH</text>
<text x="42" y="488" fill="#edf8f2" font-family="monospace" font-size="35" font-weight="700" letter-spacing="2">DROPPER POC</text><text x="42" y="524" fill="#ff4fd8" font-family="monospace" font-size="13" letter-spacing="4">CONNORBP // BUILD_392</text><path d="M810 488h148v36H810z" fill="none" stroke="#69ffb4"/><text x="884" y="511" text-anchor="middle" fill="#69ffb4" font-family="monospace" font-size="12">OPEN_SOURCE</text></svg>