<svg xmlns="http://www.w3.org/2000/svg" viewBox="0 0 1000 562">
<defs><linearGradient id="bg" x2="1" y2="1"><stop stop-color="#0c111a"/><stop offset="1" stop-color="#08090f"/></linearGradient><pattern id="grid" width="32" height="32" patternUnits="userSpaceOnUse"><path d="M32 0H0v32" fill="none" stroke="#26303b" opacity=".42"/></pattern><filter id="glow"><feGaussianBlur stdDeviation="3" result="b"/><feMerge><feMergeNode in="b"/><feMergeNode in="SourceGraphic"/></feMerge></filter></defs>
<rect width="1000" height="562" fill="url(#bg)"/><rect width="1000" height="562" fill="url(#grid)"/><path d="M0 42h1000M42 0v562M958 0v562M0 520h1000" stroke="#57e6ff" opacity=".25"/>
<g fill="none" stroke="#57e6ff" stroke-width="3" opacity=".72" filter="url(#glow)"><path d="M500 235L264 282"/><path d="M500 235L612 302"/><path d="M500 235L399 164"/><path d="M500 235L552 147"/><path d="M500 235L700 320"/><path d="M500 235L705 271"/><path d="M500 235L641 160"/><path d="M500 235L639 146"/><path d="M500 235L321 215"/><circle cx="500" cy="235" r="96"/><circle cx="500" cy="235" r="42"/></g>
<g fill="#090c12" stroke="#8d6bff" stroke-width="4" filter="url(#glow)"><rect x="254" y="272" width="20" height="20" transform="rotate(44 264 282)"/><rect x="602" y="292" width="20" height="20" transform="rotate(16 612 302)"/><rect x="389" y="154" width="20" height="20" transform="rotate(33 399 164)"/><rect x="542" y="137" width="20" height="20" transform="rotate(5 552 147)"/><rect x="690" y="310" width="20" height="20" transform="rotate(22 700 320)"/><rect x="695" y="261" width="20" height="20" transform="rotate(39 705 271)"/><rect x="631" y="150" width="20" height="20" transform="rotate(11 641 160)"/><rect x="629" y="136" width="20" height="20" transform="rotate(28 639 146)"/><rect x="311" y="205" width="20" height="20" transform="rotate(0 321 215)"/><circle cx="500" cy="235" r="18" fill="#57e6ff" stroke="none"/></g>
<g fill="#57e6ff" opacity=".25"><rect x="60" y="112" width="47" height="2"/><rect x="152" y="119" width="75" height="2"/><rect x="244" y="122" width="50" height="2"/><rect x="336" y="124" width="37" height="2"/><rect x="428" y="125" width="70" height="2"/><rect x="520" y="96" width="86" height="2"/><rect x="612" y="111" width="94" height="2"/><rect x="704" y="89" width="59" height="2"/><rect x="796" y="107" width="81" height="2"/></g><rect x="42" y="42" width="10" height="10" fill="#8d6bff"/><text x="68" y="53" fill="#57e6ff" font-family="monospace" font-size="15" letter-spacing="3">RUST · DMA · GPU</text>
<text x="42" y="488" fill="#edf8f2" font-family="monospace" font-size="35" font-weight="700" letter-spacing="2">LYCHEE</text><text x="42" y="524" fill="#8d6bff" font-family="monospace" font-size="13" letter-spacing="4">CONNORBP // BUILD_157</text><path d="M810 488h148v36H810z" fill="none" stroke="#57e6ff"/><text x="884" y="511" text-anchor="middle" fill="#57e6ff" font-family="monospace" font-size="12">OPEN_SOURCE</text></svg>