<svg xmlns="http://www.w3.org/2000/svg" viewBox="0 0 1000 562">
<defs><linearGradient id="bg" x2="1" y2="1"><stop stop-color="#0c111a"/><stop offset="1" stop-color="#08090f"/></linearGradient><pattern id="grid" width="32" height="32" patternUnits="userSpaceOnUse"><path d="M32 0H0v32" fill="none" stroke="#26303b" opacity=".42"/></pattern><filter id="glow"><feGaussianBlur stdDeviation="3" result="b"/><feMerge><feMergeNode in="b"/><feMergeNode in="SourceGraphic"/></feMerge></filter></defs>
<rect width="1000" height="562" fill="url(#bg)"/><rect width="1000" height="562" fill="url(#grid)"/><path d="M0 42h1000M42 0v562M958 0v562M0 520h1000" stroke="#57e6ff" opacity=".25"/>
<g fill="none" stroke="#57e6ff" stroke-width="3" opacity=".72" filter="url(#glow)"><path d="M500 235L444 292"/><path d="M500 235L458 338"/><path d="M500 235L538 239"/><path d="M500 235L493 156"/><path d="M500 235L332 181"/><path d="M500 235L359 324"/><path d="M500 235L344 202"/><path d="M500 235L710 362"/><path d="M500 235L355 172"/><circle cx="500" cy="235" r="96"/><circle cx="500" cy="235" r="42"/></g>
<g fill="#090c12" stroke="#8d6bff" stroke-width="4" filter="url(#glow)"><rect x="434" y="282" width="20" height="20" transform="rotate(20 444 292)"/><rect x="448" y="328" width="20" height="20" transform="rotate(37 458 338)"/><rect x="528" y="229" width="20" height="20" transform="rotate(9 538 239)"/><rect x="483" y="146" width="20" height="20" transform="rotate(26 493 156)"/><rect x="322" y="171" width="20" height="20" transform="rotate(43 332 181)"/><rect x="349" y="314" width="20" height="20" transform="rotate(15 359 324)"/><rect x="334" y="192" width="20" height="20" transform="rotate(32 344 202)"/><rect x="700" y="352" width="20" height="20" transform="rotate(4 710 362)"/><rect x="345" y="162" width="20" height="20" transform="rotate(21 355 172)"/><circle cx="500" cy="235" r="18" fill="#57e6ff" stroke="none"/></g>
<g fill="#57e6ff" opacity=".25"><rect x="60" y="92" width="38" height="2"/><rect x="152" y="109" width="31" height="2"/><rect x="244" y="117" width="28" height="2"/><rect x="336" y="92" width="65" height="2"/><rect x="428" y="109" width="45" height="2"/><rect x="520" y="88" width="35" height="2"/><rect x="612" y="78" width="30" height="2"/><rect x="704" y="102" width="66" height="2"/><rect x="796" y="85" width="84" height="2"/></g><rect x="42" y="42" width="10" height="10" fill="#8d6bff"/><text x="68" y="53" fill="#57e6ff" font-family="monospace" font-size="15" letter-spacing="3">REACT · JAVASCRIPT · GAME</text>
<text x="42" y="488" fill="#edf8f2" font-family="monospace" font-size="35" font-weight="700" letter-spacing="2">REACT TIC-TAC-TOE</text><text x="42" y="524" fill="#8d6bff" font-family="monospace" font-size="13" letter-spacing="4">CONNORBP // BUILD_724</text><path d="M810 488h148v36H810z" fill="none" stroke="#57e6ff"/><text x="884" y="511" text-anchor="middle" fill="#57e6ff" font-family="monospace" font-size="12">OPEN_SOURCE</text></svg>